<?xml version="1.0" standalone="no"?>
<!DOCTYPE svg PUBLIC "-//W3C//DTD SVG 20010904//EN"
 "http://www.w3.org/TR/2001/REC-SVG-20010904/DTD/svg10.dtd">
<svg version="1.0" xmlns="http://www.w3.org/2000/svg"
 width="768.000000pt" height="768.000000pt" viewBox="0 0 768.000000 768.000000"
 preserveAspectRatio="xMidYMid meet">
<metadata>
Created by potrace 1.14, written by Peter Selinger 2001-2017
</metadata>
<g transform="translate(0.000000,768.000000) scale(0.100000,-0.100000)"
fill="#000000" stroke="none">
<path d="M1469 7516 c-2 -2 -31 -6 -64 -9 -110 -11 -282 -54 -390 -97 -100
-40 -261 -125 -302 -160 -7 -5 -17 -10 -23 -10 -5 0 -10 -4 -10 -8 0 -5 -10
-14 -22 -19 -49 -24 -231 -196 -303 -288 -22 -27 -43 -51 -47 -53 -5 -2 -8
-10 -8 -18 0 -8 -4 -14 -10 -14 -5 0 -10 -5 -10 -10 0 -6 -5 -16 -10 -23 -90
-107 -219 -425 -245 -602 -3 -23 -9 -52 -13 -65 -9 -33 -14 -4560 -4 -4560 4
0 7 -12 8 -27 1 -37 15 -126 21 -136 3 -5 7 -22 10 -39 9 -59 65 -215 113
-313 83 -172 169 -294 305 -431 96 -96 154 -145 256 -211 204 -133 436 -219
679 -251 78 -10 4822 -9 4895 1 284 41 584 170 795 345 63 52 192 181 232 232
75 96 168 236 168 253 0 3 10 23 22 44 12 20 23 43 24 50 1 7 10 27 19 45 25
49 72 202 90 288 8 41 18 89 22 105 11 42 15 4556 4 4569 -4 6 -7 21 -6 34 1
13 -2 25 -7 28 -4 3 -6 9 -3 14 3 5 1 28 -5 52 -6 24 -13 56 -16 71 -31 167
-173 455 -303 617 -49 61 -185 197 -246 247 -198 160 -506 299 -730 329 -16 2
-41 7 -55 11 -25 8 -4823 17 -4831 9z"/>
</g>
</svg>
